<svg width="494" height="93" viewBox="0 0 494 93" fill="none" xmlns="http://www.w3.org/2000/svg">
<g filter="url(#filter0_d_9_2)">
<path d="M49.8076 76.085C49.8076 76.6514 49.666 77.1045 49.3828 77.4443C49.1279 77.7842 48.6748 77.9541 48.0234 77.9541C47.6836 77.9541 47.3296 77.9116 46.9614 77.8267C46.5933 77.77 46.2393 77.6709 45.8994 77.5293C45.1914 77.3311 44.625 77.147 44.2002 76.9771C43.8037 76.8071 43.4922 76.5806 43.2656 76.2974C43.0674 76.0425 42.9399 75.7026 42.8833 75.2778C42.8267 74.853 42.7842 74.2725 42.7559 73.5361C42.5293 67.7305 42.2744 61.9814 41.9912 56.2891C41.7363 50.5684 41.3115 44.8193 40.7168 39.042C40.3203 40.9961 39.938 42.9502 39.5698 44.9043C39.2017 46.8584 38.8193 48.8408 38.4229 50.8516C38.0264 52.9473 37.644 55.0854 37.2759 57.2661C36.936 59.4468 36.3838 61.5566 35.6191 63.5957C35.3076 64.417 34.9253 65.0684 34.4722 65.5498C34.019 66.0029 33.3252 66.2295 32.3906 66.2295C31.7109 66.2295 31.1587 66.1162 30.7339 65.8896C30.3091 65.6348 29.8984 65.2666 29.502 64.7852C29.1338 64.3887 28.7373 63.624 28.3125 62.4912C27.8877 61.3584 27.4346 60.0415 26.9531 58.5405C26.5 57.0112 26.0469 55.3828 25.5938 53.6553C25.1406 51.9277 24.7158 50.271 24.3193 48.6851C23.9229 47.0708 23.5688 45.5981 23.2573 44.2671C22.9458 42.936 22.7051 41.9307 22.5352 41.251V47.0283C22.5352 50.7949 22.606 54.5474 22.7476 58.2856C22.8892 62.0239 23.1299 65.748 23.4697 69.458C23.5547 70.2793 23.668 71.1006 23.8096 71.9219C23.9795 72.7432 24.0645 73.5645 24.0645 74.3857C24.0645 75.1221 23.8096 75.6035 23.2998 75.8301C22.8184 76.0566 22.2803 76.1699 21.6855 76.1699C20.0713 76.1699 18.8252 75.8301 17.9473 75.1504C17.0977 74.4424 16.6729 73.2529 16.6729 71.582C16.6729 68.1553 16.5879 64.7568 16.418 61.3867C16.248 58.0166 16.1631 54.6182 16.1631 51.1914C16.1631 50.71 16.1631 49.8745 16.1631 48.6851C16.1914 47.4956 16.2197 46.0938 16.248 44.4795C16.2764 42.8369 16.3047 41.0669 16.333 39.1694C16.3896 37.2437 16.4463 35.3037 16.5029 33.3496C16.5596 31.3955 16.6162 29.498 16.6729 27.6572C16.7295 25.7881 16.7861 24.1172 16.8428 22.6445C16.8994 21.1719 16.9561 19.9541 17.0127 18.9912C17.0977 18 17.1826 17.4053 17.2676 17.207C17.4092 16.8105 17.5649 16.5557 17.7349 16.4424C17.9331 16.3291 18.2305 16.2725 18.627 16.2725C19.7031 16.2725 20.5952 16.5132 21.3032 16.9946C22.0396 17.4478 22.5352 18.2266 22.79 19.3311C23.1865 19.9258 23.6396 21.0161 24.1494 22.6021C24.6592 24.1597 25.1973 25.9863 25.7637 28.082C26.3301 30.1777 26.8965 32.4434 27.4629 34.8789C28.0576 37.2861 28.6099 39.6084 29.1196 41.8457C29.6577 44.083 30.1392 46.1362 30.564 48.0054C31.0171 49.8745 31.3711 51.3047 31.626 52.2959C32.4473 47.4248 33.2827 42.582 34.1323 37.7676C34.9819 32.9531 35.7891 28.1104 36.5537 23.2393C36.6953 22.418 36.8369 21.6108 36.9785 20.8179C37.1484 20.0249 37.2334 19.2178 37.2334 18.3965C37.2334 17.8867 37.1626 17.4194 37.021 16.9946C36.8794 16.5415 36.8086 16.0742 36.8086 15.5928C36.8086 14.998 36.9927 14.644 37.3608 14.5308C37.7573 14.3892 38.1963 14.3184 38.6777 14.3184C39.1309 14.3184 39.6689 14.3892 40.292 14.5308C40.915 14.6724 41.5098 14.8848 42.0762 15.168C42.6709 15.4512 43.1665 15.8052 43.563 16.23C43.9878 16.6548 44.2002 17.1504 44.2002 17.7168C44.2002 18.708 44.1152 19.7559 43.9453 20.8604C44.9648 25.6465 45.8145 30.4468 46.4941 35.2612C47.1738 40.0474 47.6836 44.876 48.0234 49.7471C48.3633 53.9385 48.6323 58.1016 48.8306 62.2363C49.0571 66.3711 49.3262 70.5059 49.6377 74.6406C49.6943 74.8955 49.7368 75.1362 49.7651 75.3628C49.7935 75.5894 49.8076 75.8301 49.8076 76.085ZM83.4946 43.375C83.4946 44.5645 83.4663 45.9521 83.4097 47.5381C83.3813 49.0957 83.2822 50.7666 83.1123 52.5508C82.9707 54.335 82.7441 56.1616 82.4326 58.0308C82.1494 59.8999 81.7671 61.7266 81.2856 63.5107C80.8042 65.2949 80.2095 66.98 79.5015 68.5659C78.7935 70.1519 77.9438 71.5396 76.9526 72.729C75.9614 73.9185 74.8145 74.8672 73.5117 75.5752C72.209 76.2549 70.7222 76.5947 69.0513 76.5947C67.3804 76.5947 65.8652 76.2124 64.5059 75.4478C63.1465 74.6548 61.9995 73.6211 61.0649 72.3467C60.3003 71.3271 59.6206 70.0811 59.0259 68.6084C58.4595 67.1074 57.9497 65.479 57.4966 63.7231C57.0718 61.9673 56.7036 60.1406 56.3921 58.2432C56.0806 56.3457 55.8257 54.4766 55.6274 52.6357C55.4575 50.7949 55.3301 49.0532 55.2451 47.4106C55.1602 45.7397 55.1177 44.2812 55.1177 43.0352C55.1177 40.9395 55.2026 38.7446 55.3726 36.4507C55.5708 34.1567 55.9248 31.8911 56.4346 29.6538C56.9443 27.3882 57.6382 25.2075 58.5161 23.1118C59.394 21.0161 60.5269 19.1328 61.9146 17.4619C62.0562 17.292 62.2261 17.0937 62.4243 16.8672C62.6509 16.6406 62.8916 16.4282 63.1465 16.23C63.4014 16.0034 63.6562 15.8193 63.9111 15.6777C64.1943 15.5078 64.4634 15.4229 64.7183 15.4229C64.9731 15.4229 65.2139 15.4937 65.4404 15.6353C65.6953 15.7769 65.9077 15.9609 66.0776 16.1875C66.6724 15.8477 67.2954 15.6069 67.9468 15.4653C68.6265 15.3237 69.3062 15.2529 69.9858 15.2529C72.0532 15.2529 73.8232 15.7485 75.2959 16.7397C76.7969 17.7026 78.043 18.9771 79.0342 20.563C80.0254 22.1489 80.8184 23.9473 81.4131 25.958C82.0078 27.9687 82.4609 30.022 82.7725 32.1177C83.084 34.2134 83.2822 36.2383 83.3672 38.1924C83.4521 40.1465 83.4946 41.874 83.4946 43.375ZM76.8677 45.2441C76.8677 44.5078 76.8394 43.3892 76.7827 41.8882C76.7544 40.3589 76.6553 38.688 76.4854 36.8755C76.3154 35.0347 76.0747 33.1514 75.7632 31.2256C75.48 29.2998 75.0835 27.5581 74.5737 26.0005C74.064 24.4146 73.4268 23.126 72.6621 22.1348C71.9258 21.1152 71.0337 20.6055 69.9858 20.6055C69.561 20.6055 69.1787 20.8037 68.8389 21.2002C68.499 21.5967 68.1733 22.1064 67.8618 22.7295C67.5503 23.3525 67.2671 24.0322 67.0122 24.7686C66.7573 25.5049 66.5024 26.2129 66.2476 26.8926C65.9927 27.5723 65.752 28.1812 65.5254 28.7192C65.2988 29.2573 65.0581 29.6396 64.8032 29.8662C64.7183 29.9512 64.5767 30.0078 64.3784 30.0361C64.2085 30.0361 64.0386 30.0361 63.8687 30.0361C63.3872 30.0361 62.9341 29.9512 62.5093 29.7812C62.0278 31.707 61.688 33.6328 61.4897 35.5586C61.3198 37.4561 61.2349 39.3818 61.2349 41.3359C61.2349 41.9307 61.2632 42.8228 61.3198 44.0122C61.3765 45.2017 61.4614 46.561 61.5747 48.0903C61.688 49.6196 61.8438 51.2622 62.042 53.0181C62.2402 54.7739 62.481 56.5298 62.7642 58.2856C63.0474 60.0132 63.373 61.6841 63.7412 63.2983C64.1377 64.8843 64.5908 66.3003 65.1006 67.5464C65.6104 68.7642 66.1768 69.7412 66.7998 70.4775C67.4229 71.2139 68.1167 71.582 68.8813 71.582C69.3062 71.582 69.6885 71.4688 70.0283 71.2422C70.3682 70.9873 70.6938 70.7324 71.0054 70.4775C71.855 69.7129 72.5913 68.7075 73.2144 67.4614C73.8374 66.2153 74.3613 64.8418 74.7861 63.3408C75.2109 61.8398 75.5649 60.2681 75.8481 58.6255C76.1313 56.9546 76.3438 55.312 76.4854 53.6978C76.627 52.0835 76.7261 50.5542 76.7827 49.1099C76.8394 47.6372 76.8677 46.3486 76.8677 45.2441ZM123.894 76.085C123.894 76.6514 123.752 77.1045 123.469 77.4443C123.214 77.7842 122.761 77.9541 122.109 77.9541C121.77 77.9541 121.416 77.9116 121.047 77.8267C120.679 77.77 120.325 77.6709 119.985 77.5293C119.277 77.3311 118.711 77.147 118.286 76.9771C117.89 76.8071 117.578 76.5806 117.352 76.2974C117.153 76.0425 117.026 75.7026 116.969 75.2778C116.913 74.853 116.87 74.2725 116.842 73.5361C116.615 67.7305 116.36 61.9814 116.077 56.2891C115.822 50.5684 115.397 44.8193 114.803 39.042C114.406 40.9961 114.024 42.9502 113.656 44.9043C113.288 46.8584 112.905 48.8408 112.509 50.8516C112.112 52.9473 111.73 55.0854 111.362 57.2661C111.022 59.4468 110.47 61.5566 109.705 63.5957C109.394 64.417 109.011 65.0684 108.558 65.5498C108.105 66.0029 107.411 66.2295 106.477 66.2295C105.797 66.2295 105.245 66.1162 104.82 65.8896C104.395 65.6348 103.984 65.2666 103.588 64.7852C103.22 64.3887 102.823 63.624 102.398 62.4912C101.974 61.3584 101.521 60.0415 101.039 58.5405C100.586 57.0112 100.133 55.3828 99.6797 53.6553C99.2266 51.9277 98.8018 50.271 98.4053 48.6851C98.0088 47.0708 97.6548 45.5981 97.3433 44.2671C97.0317 42.936 96.791 41.9307 96.6211 41.251V47.0283C96.6211 50.7949 96.6919 54.5474 96.8335 58.2856C96.9751 62.0239 97.2158 65.748 97.5557 69.458C97.6406 70.2793 97.7539 71.1006 97.8955 71.9219C98.0654 72.7432 98.1504 73.5645 98.1504 74.3857C98.1504 75.1221 97.8955 75.6035 97.3857 75.8301C96.9043 76.0566 96.3662 76.1699 95.7715 76.1699C94.1572 76.1699 92.9111 75.8301 92.0332 75.1504C91.1836 74.4424 90.7588 73.2529 90.7588 71.582C90.7588 68.1553 90.6738 64.7568 90.5039 61.3867C90.334 58.0166 90.249 54.6182 90.249 51.1914C90.249 50.71 90.249 49.8745 90.249 48.6851C90.2773 47.4956 90.3057 46.0938 90.334 44.4795C90.3623 42.8369 90.3906 41.0669 90.4189 39.1694C90.4756 37.2437 90.5322 35.3037 90.5889 33.3496C90.6455 31.3955 90.7021 29.498 90.7588 27.6572C90.8154 25.7881 90.8721 24.1172 90.9287 22.6445C90.9854 21.1719 91.042 19.9541 91.0986 18.9912C91.1836 18 91.2686 17.4053 91.3535 17.207C91.4951 16.8105 91.6509 16.5557 91.8208 16.4424C92.019 16.3291 92.3164 16.2725 92.7129 16.2725C93.7891 16.2725 94.6812 16.5132 95.3892 16.9946C96.1255 17.4478 96.6211 18.2266 96.876 19.3311C97.2725 19.9258 97.7256 21.0161 98.2354 22.6021C98.7451 24.1597 99.2832 25.9863 99.8496 28.082C100.416 30.1777 100.982 32.4434 101.549 34.8789C102.144 37.2861 102.696 39.6084 103.206 41.8457C103.744 44.083 104.225 46.1362 104.65 48.0054C105.103 49.8745 105.457 51.3047 105.712 52.2959C106.533 47.4248 107.369 42.582 108.218 37.7676C109.068 32.9531 109.875 28.1104 110.64 23.2393C110.781 22.418 110.923 21.6108 111.064 20.8179C111.234 20.0249 111.319 19.2178 111.319 18.3965C111.319 17.8867 111.249 17.4194 111.107 16.9946C110.965 16.5415 110.895 16.0742 110.895 15.5928C110.895 14.998 111.079 14.644 111.447 14.5308C111.843 14.3892 112.282 14.3184 112.764 14.3184C113.217 14.3184 113.755 14.3892 114.378 14.5308C115.001 14.6724 115.596 14.8848 116.162 15.168C116.757 15.4512 117.252 15.8052 117.649 16.23C118.074 16.6548 118.286 17.1504 118.286 17.7168C118.286 18.708 118.201 19.7559 118.031 20.8604C119.051 25.6465 119.9 30.4468 120.58 35.2612C121.26 40.0474 121.77 44.876 122.109 49.7471C122.449 53.9385 122.718 58.1016 122.917 62.2363C123.143 66.3711 123.412 70.5059 123.724 74.6406C123.78 74.8955 123.823 75.1362 123.851 75.3628C123.879 75.5894 123.894 75.8301 123.894 76.085ZM159.322 66.7393C159.322 67.2207 159.124 67.688 158.728 68.1411C158.359 68.5942 157.906 69.0332 157.368 69.458C156.83 69.8828 156.278 70.2793 155.711 70.6475C155.145 70.9873 154.678 71.2705 154.31 71.4971C153.347 72.1201 152.384 72.7007 151.421 73.2388C150.486 73.7769 149.509 74.2441 148.49 74.6406C147.499 75.0371 146.465 75.3486 145.389 75.5752C144.341 75.8018 143.236 75.915 142.075 75.915L141.396 76C140.461 76 139.526 75.9009 138.592 75.7026C137.686 75.4761 136.836 75.1504 136.043 74.7256C135.25 74.2725 134.542 73.7061 133.919 73.0264C133.296 72.3467 132.814 71.5254 132.475 70.5625C132.22 69.7979 132.021 68.8916 131.88 67.8438C131.738 66.7959 131.625 65.7056 131.54 64.5728C131.483 63.4399 131.427 62.3354 131.37 61.2593C131.342 60.1548 131.313 59.1777 131.285 58.3281C130.86 49.6621 130.521 40.9961 130.266 32.3301C130.209 31.3389 130.167 30.3477 130.138 29.3564C130.11 28.3652 130.096 27.374 130.096 26.3828C130.096 24.6836 130.195 23.2393 130.393 22.0498C130.591 20.8604 130.988 19.8833 131.583 19.1187C132.177 18.354 133.027 17.8018 134.131 17.4619C135.264 17.1221 136.751 16.9521 138.592 16.9521C140.433 16.9521 142.273 16.9663 144.114 16.9946C145.983 17.0229 147.853 17.0371 149.722 17.0371C150.288 17.0371 150.854 17.0229 151.421 16.9946C151.987 16.938 152.554 16.9805 153.12 17.1221C153.46 17.1787 153.757 17.2778 154.012 17.4194C154.267 17.5327 154.395 17.8018 154.395 18.2266C154.395 19.2461 154.055 20.0107 153.375 20.5205C152.695 21.002 151.888 21.3276 150.954 21.4976C150.019 21.6675 149.042 21.7524 148.022 21.7524C147.031 21.7241 146.21 21.71 145.559 21.71H140.036C139.47 21.71 138.903 21.71 138.337 21.71C137.771 21.71 137.204 21.7383 136.638 21.7949C136.468 22.2197 136.354 22.6587 136.298 23.1118C136.241 23.5649 136.213 24.0322 136.213 24.5137C136.213 27.6006 136.284 30.645 136.425 33.647C136.595 36.6489 136.751 39.6934 136.893 42.7803C138.648 42.6387 140.39 42.4688 142.118 42.2705C143.845 42.0723 145.587 41.8457 147.343 41.5908C147.598 41.5908 147.824 41.5767 148.022 41.5483C148.249 41.52 148.476 41.5059 148.702 41.5059C149.297 41.5059 149.708 41.6616 149.934 41.9731C150.189 42.2847 150.316 42.7236 150.316 43.29C150.316 43.6865 150.288 44.0547 150.231 44.3945C150.203 44.7344 150.118 45.0742 149.977 45.4141C149.778 45.9805 149.453 46.3911 149 46.646C148.546 46.9009 148.037 47.085 147.47 47.1982C146.904 47.2832 146.309 47.3257 145.686 47.3257C145.091 47.3257 144.567 47.3398 144.114 47.3682C142.925 47.4248 141.75 47.4673 140.588 47.4956C139.456 47.5239 138.309 47.5664 137.147 47.623C137.176 48.2178 137.218 49.1099 137.275 50.2993C137.332 51.4888 137.388 52.834 137.445 54.335C137.53 55.8076 137.615 57.3369 137.7 58.9229C137.813 60.5088 137.926 62.0098 138.04 63.4258C138.153 64.8135 138.28 66.0312 138.422 67.0791C138.563 68.127 138.705 68.835 138.847 69.2031C139.158 69.7979 139.512 70.1943 139.909 70.3926C140.305 70.5625 140.829 70.6475 141.48 70.6475C142.528 70.6475 143.633 70.4492 144.794 70.0527C145.955 69.6279 147.088 69.104 148.192 68.481C149.297 67.8296 150.345 67.1216 151.336 66.3569C152.355 65.5923 153.233 64.8418 153.97 64.1055C154.281 63.8506 154.593 63.5957 154.904 63.3408C155.216 63.0576 155.584 62.916 156.009 62.916C156.434 62.916 156.844 63.0435 157.241 63.2983C157.637 63.5532 157.991 63.8789 158.303 64.2754C158.614 64.6436 158.855 65.0542 159.025 65.5073C159.223 65.9604 159.322 66.3711 159.322 66.7393ZM188.464 72.5166C188.464 73.0264 188.407 73.5361 188.294 74.0459C188.209 74.5273 188.039 74.9663 187.784 75.3628C187.558 75.731 187.246 76.0283 186.85 76.2549C186.453 76.4814 185.943 76.5947 185.32 76.5947C184.556 76.5947 183.933 76.4248 183.451 76.085C182.998 75.7734 182.573 75.3203 182.177 74.7256C181.639 73.9609 181.157 73.083 180.732 72.0918C180.308 71.0723 179.925 70.0386 179.585 68.9907C179.246 67.9146 178.92 66.8525 178.608 65.8047C178.325 64.7285 178.042 63.7373 177.759 62.8311C176.229 58.0732 174.799 53.3296 173.468 48.6001C172.166 43.8706 170.764 39.127 169.263 34.3691C169.121 40.5146 169.008 46.6318 168.923 52.7207C168.866 58.8096 168.838 64.9268 168.838 71.0723C168.838 71.3838 168.824 71.7378 168.795 72.1343C168.767 72.5308 168.696 72.9131 168.583 73.2812C168.47 73.6211 168.286 73.9185 168.031 74.1733C167.804 74.4282 167.479 74.5557 167.054 74.5557C165.609 74.5557 164.505 74.1733 163.74 73.4087C163.004 72.6157 162.636 71.4971 162.636 70.0527C162.636 62.0947 162.65 54.2075 162.678 46.3911C162.707 38.5747 162.721 30.7158 162.721 22.8145V16.7822C162.721 16.1309 162.834 15.5928 163.061 15.168C163.315 14.7148 163.854 14.4883 164.675 14.4883C165.241 14.4883 165.822 14.5732 166.417 14.7432C167.011 14.8848 167.535 15.1113 167.988 15.4229C168.47 15.7344 168.852 16.145 169.135 16.6548C169.447 17.1362 169.603 17.7168 169.603 18.3965C170.792 20.6621 171.783 22.9985 172.576 25.4058C173.397 27.813 174.19 30.2344 174.955 32.6699C176.06 36.21 177.15 39.75 178.226 43.29C179.302 46.8301 180.393 50.3984 181.497 53.9951C181.327 48.6426 181.143 43.3042 180.945 37.98C180.775 32.6274 180.421 27.2891 179.883 21.9648C179.741 20.8037 179.571 19.6709 179.373 18.5664C179.203 17.4619 179.118 16.3291 179.118 15.168C179.118 14.5732 179.316 14.1768 179.713 13.9785C180.109 13.752 180.562 13.6387 181.072 13.6387C181.95 13.6387 182.701 13.7095 183.324 13.8511C183.947 13.9927 184.471 14.2334 184.896 14.5732C185.32 14.9131 185.646 15.3804 185.873 15.9751C186.099 16.5415 186.283 17.2637 186.425 18.1416C186.595 19.6709 186.722 21.2144 186.807 22.772C186.92 24.3013 187.02 25.8164 187.104 27.3174C187.359 31.1123 187.543 34.8789 187.657 38.6172C187.77 42.3555 187.869 46.1221 187.954 49.917C188.039 53.6836 188.138 57.4502 188.251 61.2168C188.393 64.9551 188.464 68.7217 188.464 72.5166ZM222.236 17.5469C222.236 18.5664 221.938 19.4019 221.344 20.0532C220.777 20.7046 219.999 21.1436 219.007 21.3701C217.421 21.71 215.793 21.894 214.122 21.9224C212.479 21.9224 210.851 21.9648 209.237 22.0498V30.4609C209.237 37.5977 209.449 44.7202 209.874 51.8286C210.327 58.9087 211.049 66.0029 212.041 73.1113C212.125 73.5361 212.21 73.9609 212.295 74.3857C212.409 74.8105 212.465 75.2354 212.465 75.6602C212.465 76.3398 212.281 76.8354 211.913 77.147C211.573 77.4585 211.078 77.6143 210.426 77.6143C209.917 77.6143 209.279 77.5435 208.515 77.4019C207.778 77.2886 207.198 77.1045 206.773 76.8496C206.207 76.5098 205.838 76.1699 205.668 75.8301C205.527 75.4619 205.414 74.9805 205.329 74.3857C205.017 72.375 204.805 70.3643 204.691 68.3535C204.578 66.3428 204.451 64.332 204.309 62.3213C203.969 58.0166 203.686 53.7261 203.459 49.4497C203.233 45.1733 203.12 40.8828 203.12 36.5781C203.12 34.2275 203.134 31.8911 203.162 29.5688C203.19 27.2466 203.205 24.8818 203.205 22.4746C201.449 22.6445 199.679 22.8145 197.895 22.9844C196.139 23.1543 194.369 23.2393 192.584 23.2393C192.16 23.2393 191.82 23.1401 191.565 22.9419C191.282 22.7153 191.14 22.3896 191.14 21.9648C191.14 20.9736 191.466 20.209 192.117 19.6709C192.769 19.1045 193.547 18.708 194.454 18.4814C195.898 18.1699 197.371 17.9717 198.872 17.8867C200.373 17.7734 201.874 17.6318 203.375 17.4619C203.375 17.1787 203.389 16.9097 203.417 16.6548C203.445 16.3716 203.502 16.1309 203.587 15.9326C203.7 15.7061 203.856 15.522 204.054 15.3804C204.252 15.2388 204.536 15.168 204.904 15.168C205.583 15.168 206.277 15.3237 206.985 15.6353C207.693 15.9468 208.246 16.3857 208.642 16.9521L215.694 16.1875C216.374 16.1025 217.053 16.0176 217.733 15.9326C218.413 15.8193 219.092 15.7627 219.772 15.7627C220.083 15.7627 220.381 15.7769 220.664 15.8052C220.976 15.8335 221.245 15.9185 221.471 16.0601C221.698 16.1733 221.882 16.3574 222.023 16.6123C222.165 16.8389 222.236 17.1504 222.236 17.5469ZM256.475 71.582C256.475 71.9785 256.433 72.3892 256.348 72.814C256.263 73.2388 256.135 73.6211 255.965 73.9609C255.767 74.4424 255.399 74.7964 254.861 75.0229C254.351 75.2495 253.771 75.4053 253.119 75.4902C252.496 75.5469 251.859 75.5752 251.208 75.5752C250.556 75.5469 250.018 75.5469 249.593 75.5752C248.404 75.6602 247.214 75.7593 246.025 75.8726C244.835 75.9858 243.646 76.085 242.457 76.1699C242.088 76.9062 241.522 77.2744 240.757 77.2744C240.531 77.2744 240.248 77.2178 239.908 77.1045C239.568 77.0195 239.214 76.8921 238.846 76.7222C238.506 76.5806 238.18 76.4106 237.869 76.2124C237.585 76.0425 237.387 75.8584 237.274 75.6602C236.962 75.4336 236.708 75.1646 236.509 74.853C236.339 74.5415 236.254 74.1875 236.254 73.791C236.254 73.1396 236.396 72.5308 236.679 71.9644C236.962 71.3979 237.217 70.8174 237.444 70.2227C239.03 66.2012 240.545 62.1938 241.989 58.2007C243.434 54.1792 244.835 50.1152 246.195 46.0088C246.648 44.6777 247.087 43.3325 247.512 41.9731C247.965 40.5854 248.361 39.1978 248.701 37.8101C249.041 36.4224 249.31 35.0205 249.508 33.6045C249.735 32.1885 249.848 30.7725 249.848 29.3564C249.848 28.9033 249.806 28.2661 249.721 27.4448C249.664 26.6235 249.522 25.8164 249.296 25.0234C249.098 24.2021 248.8 23.5083 248.404 22.9419C248.007 22.3472 247.469 22.0498 246.79 22.0498C246.365 22.0498 245.926 22.1772 245.473 22.4321C245.02 22.687 244.581 22.9985 244.156 23.3667C243.759 23.7349 243.391 24.1313 243.051 24.5562C242.74 24.981 242.485 25.3633 242.287 25.7031C241.805 26.4678 241.38 27.2891 241.012 28.167C240.644 29.0166 240.333 29.8662 240.078 30.7158C239.993 31.1406 239.908 31.5654 239.823 31.9902C239.766 32.3867 239.653 32.7832 239.483 33.1797C239.341 33.4912 239.171 33.7178 238.973 33.8594C238.803 33.9727 238.548 34.0293 238.208 34.0293C237.755 34.0293 237.288 33.9585 236.807 33.8169C236.354 33.647 235.929 33.4204 235.532 33.1372C235.164 32.854 234.853 32.5142 234.598 32.1177C234.343 31.6929 234.215 31.2256 234.215 30.7158C234.215 29.9795 234.357 29.2432 234.64 28.5068C234.952 27.7705 235.235 27.0625 235.49 26.3828C236.028 25.165 236.651 24.0039 237.359 22.8994C238.067 21.7949 238.888 20.8179 239.823 19.9683C240.757 19.1187 241.805 18.4531 242.966 17.9717C244.127 17.4619 245.43 17.207 246.875 17.207C248.687 17.207 250.188 17.5894 251.377 18.354C252.567 19.0903 253.501 20.0532 254.181 21.2427C254.889 22.4321 255.371 23.7773 255.625 25.2783C255.909 26.7793 256.05 28.2803 256.05 29.7812C256.05 32.3584 255.739 35.1196 255.116 38.0649C254.493 40.9819 253.714 43.9272 252.779 46.9009C251.845 49.8745 250.839 52.8057 249.763 55.6943C248.715 58.5547 247.752 61.1885 246.875 63.5957L244.326 70.9873L253.756 69.7129C253.926 69.7129 254.082 69.6987 254.224 69.6704C254.365 69.6421 254.521 69.6279 254.691 69.6279C255.342 69.6279 255.795 69.812 256.05 70.1802C256.333 70.52 256.475 70.9873 256.475 71.582ZM289.482 43.1201C289.482 43.5166 289.397 43.8848 289.228 44.2246C289.058 44.7061 288.888 45.1025 288.718 45.4141C288.576 45.7256 288.392 45.9663 288.166 46.1362C287.939 46.3062 287.656 46.4336 287.316 46.5186C287.004 46.5752 286.594 46.6035 286.084 46.6035H274.529C274.331 46.6035 274.076 46.6035 273.765 46.6035C273.481 46.5752 273.184 46.5327 272.873 46.4761C272.589 46.3911 272.334 46.2778 272.108 46.1362C271.91 45.9663 271.811 45.7256 271.811 45.4141C271.811 44.7344 272.051 44.1396 272.533 43.6299C273.014 43.0918 273.595 42.752 274.274 42.6104C274.841 42.5254 275.407 42.4829 275.974 42.4829C276.54 42.4546 277.106 42.4121 277.673 42.3555C279.287 42.2705 280.901 42.1855 282.516 42.1006C284.13 41.9873 285.772 41.9307 287.443 41.9307C287.642 41.9307 287.854 41.9448 288.081 41.9731C288.335 41.9731 288.562 42.0156 288.76 42.1006C288.987 42.1572 289.157 42.2705 289.27 42.4404C289.412 42.6104 289.482 42.8369 289.482 43.1201ZM331.581 62.5762C331.581 64.6719 331.241 66.6543 330.561 68.5234C329.881 70.3926 328.904 72.0352 327.63 73.4512C326.384 74.8389 324.869 75.9434 323.084 76.7646C321.3 77.6143 319.318 78.0391 317.137 78.0391C315.211 78.0391 313.427 77.7275 311.785 77.1045C310.17 76.5098 308.769 75.6602 307.579 74.5557C306.39 73.4512 305.455 72.106 304.775 70.52C304.124 68.9341 303.798 67.1641 303.798 65.21C303.798 64.8135 303.812 64.3179 303.841 63.7231C303.869 63.1284 303.954 62.562 304.096 62.0239C304.266 61.4575 304.492 60.9902 304.775 60.6221C305.087 60.2256 305.526 60.0273 306.092 60.0273C306.545 60.0273 307.041 60.1265 307.579 60.3247C308.146 60.4946 308.669 60.7354 309.151 61.0469C309.632 61.3584 310.029 61.7407 310.34 62.1938C310.68 62.6187 310.85 63.0859 310.85 63.5957V66.0596C310.85 68.0137 311.374 69.6138 312.422 70.8599C313.498 72.0776 315.042 72.6865 317.052 72.6865C318.468 72.6865 319.686 72.3608 320.706 71.7095C321.725 71.0581 322.546 70.2227 323.169 69.2031C323.821 68.1836 324.288 67.0508 324.571 65.8047C324.883 64.5303 325.039 63.2842 325.039 62.0664C325.039 59.6875 324.543 57.3794 323.552 55.1421C322.589 52.9048 321.371 50.7241 319.898 48.6001C318.426 46.4478 316.826 44.3379 315.098 42.2705C313.371 40.2031 311.771 38.1499 310.298 36.1108C308.825 34.0718 307.593 32.0327 306.602 29.9937C305.639 27.9546 305.158 25.873 305.158 23.749C305.158 22.0215 305.498 20.5347 306.177 19.2886C306.885 18.0142 307.806 16.9805 308.938 16.1875C310.1 15.3662 311.402 14.7715 312.847 14.4033C314.319 14.0068 315.834 13.8086 317.392 13.8086C319.29 13.8086 320.989 14.0776 322.49 14.6157C323.991 15.1538 325.265 15.9326 326.313 16.9521C327.361 17.9717 328.154 19.2319 328.692 20.7329C329.258 22.2056 329.542 23.8906 329.542 25.7881C329.542 26.0713 329.527 26.4253 329.499 26.8501C329.471 27.2749 329.4 27.6997 329.287 28.1245C329.173 28.521 329.003 28.875 328.777 29.1865C328.55 29.4697 328.239 29.6113 327.842 29.6113C327.276 29.6113 326.709 29.4697 326.143 29.1865C325.662 28.9316 325.265 28.6909 324.954 28.4644C324.67 28.2095 324.444 27.9404 324.274 27.6572C324.104 27.3457 323.977 27.0059 323.892 26.6377C323.807 26.2695 323.736 25.8164 323.679 25.2783C323.538 24.2588 323.354 23.3384 323.127 22.5171C322.9 21.6958 322.561 21.002 322.107 20.4355C321.654 19.8691 321.06 19.4302 320.323 19.1187C319.587 18.8071 318.638 18.6514 317.477 18.6514C316.656 18.6514 315.863 18.7363 315.098 18.9062C314.362 19.0762 313.71 19.3594 313.144 19.7559C312.606 20.1523 312.167 20.6763 311.827 21.3276C311.516 21.9507 311.36 22.7295 311.36 23.6641C311.36 24.9668 311.643 26.2979 312.209 27.6572C312.804 29.0166 313.569 30.4043 314.503 31.8203C315.466 33.2363 316.542 34.6948 317.732 36.1958C318.95 37.6685 320.196 39.1978 321.47 40.7837C322.745 42.3696 323.977 44.0122 325.166 45.7114C326.384 47.3823 327.46 49.124 328.395 50.9365C329.357 52.749 330.122 54.6323 330.688 56.5864C331.283 58.5122 331.581 60.5088 331.581 62.5762ZM362.761 30.291C362.761 33.0947 362.308 35.9126 361.402 38.7446C360.524 41.5767 359.278 44.2246 357.664 46.6885C356.078 49.1523 354.166 51.3472 351.929 53.2729C349.691 55.1987 347.242 56.6572 344.58 57.6484C344.75 59.999 344.948 62.3354 345.174 64.6577C345.401 66.98 345.712 69.3164 346.109 71.667C346.194 72.0918 346.279 72.5308 346.364 72.9839C346.477 73.437 346.534 73.9043 346.534 74.3857C346.534 75.1221 346.35 75.6177 345.981 75.8726C345.613 76.1274 345.089 76.2549 344.41 76.2549C343.928 76.2549 343.348 76.1982 342.668 76.085C341.988 75.9717 341.408 75.8018 340.926 75.5752C340.36 75.2637 339.978 74.9521 339.779 74.6406C339.609 74.3008 339.482 73.8477 339.397 73.2812C338.916 70.874 338.618 68.4668 338.505 66.0596C338.42 63.6523 338.292 61.2451 338.123 58.8379C337.556 58.7812 337.089 58.6396 336.721 58.4131C336.353 58.1582 336.168 57.7334 336.168 57.1387C336.168 56.5723 336.324 55.9775 336.636 55.3545C336.976 54.7314 337.358 54.25 337.783 53.9102C337.528 48.6426 337.415 43.4175 337.443 38.2349C337.5 33.0522 337.5 27.8271 337.443 22.5596C337.301 22.6162 337.174 22.6587 337.061 22.687C336.947 22.7153 336.82 22.7295 336.678 22.7295C336.367 22.7295 336.112 22.6587 335.914 22.5171C335.715 22.3472 335.545 22.1489 335.404 21.9224C335.291 21.6958 335.206 21.4551 335.149 21.2002C335.092 20.917 335.064 20.6621 335.064 20.4355C335.064 19.5859 335.276 18.9771 335.701 18.6089C336.126 18.2124 336.707 17.8584 337.443 17.5469C337.443 17.2354 337.443 16.8813 337.443 16.4849C337.471 16.0601 337.528 15.6777 337.613 15.3379C337.726 14.9697 337.896 14.6724 338.123 14.4458C338.349 14.1909 338.689 14.0635 339.142 14.0635C339.878 14.0635 340.586 14.2051 341.266 14.4883C341.946 14.7715 342.456 15.2529 342.795 15.9326C343.787 15.7627 344.75 15.6069 345.684 15.4653C346.619 15.3237 347.582 15.2529 348.573 15.2529C350.81 15.2529 352.807 15.6353 354.562 16.3999C356.318 17.1362 357.805 18.1841 359.023 19.5435C360.241 20.8745 361.161 22.4604 361.784 24.3013C362.436 26.1421 362.761 28.1387 362.761 30.291ZM356.389 29.5264C356.389 28.2236 356.219 27.0059 355.879 25.873C355.54 24.7119 355.03 23.7207 354.35 22.8994C353.67 22.0498 352.807 21.3843 351.759 20.9028C350.711 20.4214 349.479 20.1807 348.063 20.1807C347.298 20.1807 346.52 20.2373 345.727 20.3506C344.962 20.4639 344.211 20.6338 343.475 20.8604C343.475 26.043 343.503 31.1831 343.56 36.2808C343.645 41.3784 343.843 46.4902 344.155 51.6162C345.967 50.6816 347.624 49.3789 349.125 47.708C350.626 46.0371 351.915 44.1963 352.991 42.1855C354.067 40.1465 354.902 38.0366 355.497 35.856C356.092 33.647 356.389 31.5371 356.389 29.5264ZM395.854 66.7393C395.854 67.2207 395.655 67.688 395.259 68.1411C394.891 68.5942 394.438 69.0332 393.899 69.458C393.361 69.8828 392.809 70.2793 392.243 70.6475C391.676 70.9873 391.209 71.2705 390.841 71.4971C389.878 72.1201 388.915 72.7007 387.952 73.2388C387.018 73.7769 386.041 74.2441 385.021 74.6406C384.03 75.0371 382.996 75.3486 381.92 75.5752C380.872 75.8018 379.768 75.915 378.606 75.915L377.927 76C376.992 76 376.058 75.9009 375.123 75.7026C374.217 75.4761 373.367 75.1504 372.574 74.7256C371.781 74.2725 371.073 73.7061 370.45 73.0264C369.827 72.3467 369.346 71.5254 369.006 70.5625C368.751 69.7979 368.553 68.8916 368.411 67.8438C368.27 66.7959 368.156 65.7056 368.071 64.5728C368.015 63.4399 367.958 62.3354 367.901 61.2593C367.873 60.1548 367.845 59.1777 367.816 58.3281C367.392 49.6621 367.052 40.9961 366.797 32.3301C366.74 31.3389 366.698 30.3477 366.669 29.3564C366.641 28.3652 366.627 27.374 366.627 26.3828C366.627 24.6836 366.726 23.2393 366.924 22.0498C367.123 20.8604 367.519 19.8833 368.114 19.1187C368.708 18.354 369.558 17.8018 370.663 17.4619C371.795 17.1221 373.282 16.9521 375.123 16.9521C376.964 16.9521 378.805 16.9663 380.646 16.9946C382.515 17.0229 384.384 17.0371 386.253 17.0371C386.819 17.0371 387.386 17.0229 387.952 16.9946C388.519 16.938 389.085 16.9805 389.651 17.1221C389.991 17.1787 390.289 17.2778 390.543 17.4194C390.798 17.5327 390.926 17.8018 390.926 18.2266C390.926 19.2461 390.586 20.0107 389.906 20.5205C389.227 21.002 388.419 21.3276 387.485 21.4976C386.55 21.6675 385.573 21.7524 384.554 21.7524C383.562 21.7241 382.741 21.71 382.09 21.71H376.567C376.001 21.71 375.435 21.71 374.868 21.71C374.302 21.71 373.735 21.7383 373.169 21.7949C372.999 22.2197 372.886 22.6587 372.829 23.1118C372.772 23.5649 372.744 24.0322 372.744 24.5137C372.744 27.6006 372.815 30.645 372.957 33.647C373.126 36.6489 373.282 39.6934 373.424 42.7803C375.18 42.6387 376.921 42.4688 378.649 42.2705C380.376 42.0723 382.118 41.8457 383.874 41.5908C384.129 41.5908 384.355 41.5767 384.554 41.5483C384.78 41.52 385.007 41.5059 385.233 41.5059C385.828 41.5059 386.239 41.6616 386.465 41.9731C386.72 42.2847 386.848 42.7236 386.848 43.29C386.848 43.6865 386.819 44.0547 386.763 44.3945C386.734 44.7344 386.649 45.0742 386.508 45.4141C386.31 45.9805 385.984 46.3911 385.531 46.646C385.078 46.9009 384.568 47.085 384.001 47.1982C383.435 47.2832 382.84 47.3257 382.217 47.3257C381.623 47.3257 381.099 47.3398 380.646 47.3682C379.456 47.4248 378.281 47.4673 377.12 47.4956C375.987 47.5239 374.84 47.5664 373.679 47.623C373.707 48.2178 373.75 49.1099 373.806 50.2993C373.863 51.4888 373.919 52.834 373.976 54.335C374.061 55.8076 374.146 57.3369 374.231 58.9229C374.344 60.5088 374.458 62.0098 374.571 63.4258C374.684 64.8135 374.812 66.0312 374.953 67.0791C375.095 68.127 375.236 68.835 375.378 69.2031C375.689 69.7979 376.043 70.1943 376.44 70.3926C376.836 70.5625 377.36 70.6475 378.012 70.6475C379.06 70.6475 380.164 70.4492 381.325 70.0527C382.486 69.6279 383.619 69.104 384.724 68.481C385.828 67.8296 386.876 67.1216 387.867 66.3569C388.887 65.5923 389.765 64.8418 390.501 64.1055C390.812 63.8506 391.124 63.5957 391.436 63.3408C391.747 63.0576 392.115 62.916 392.54 62.916C392.965 62.916 393.375 63.0435 393.772 63.2983C394.168 63.5532 394.522 63.8789 394.834 64.2754C395.146 64.6436 395.386 65.0542 395.556 65.5073C395.754 65.9604 395.854 66.3711 395.854 66.7393ZM422.531 77.2744C422.531 77.6143 422.432 77.8833 422.234 78.0815C422.064 78.2798 421.852 78.4214 421.597 78.5063C421.342 78.5913 421.059 78.6479 420.747 78.6763C420.436 78.7046 420.152 78.7188 419.897 78.7188C419.218 78.7188 418.637 78.7046 418.156 78.6763C417.674 78.6763 417.25 78.5913 416.881 78.4214C416.513 78.2515 416.188 77.9824 415.904 77.6143C415.621 77.2744 415.338 76.7646 415.055 76.085C413.894 73.5645 412.874 70.9873 411.996 68.3535C411.146 65.6914 410.269 63.0293 409.362 60.3672C408.626 62.293 407.847 64.1904 407.026 66.0596C406.205 67.9287 405.369 69.7979 404.52 71.667C404.123 72.5166 403.755 73.3804 403.415 74.2583C403.075 75.1079 402.65 75.9434 402.141 76.7646C401.886 77.1611 401.631 77.4727 401.376 77.6992C401.149 77.9258 400.781 78.0391 400.271 78.0391C399.903 78.0391 399.479 77.9399 398.997 77.7417C398.516 77.5435 398.048 77.2744 397.595 76.9346C397.17 76.623 396.802 76.269 396.491 75.8726C396.179 75.4478 396.023 75.0371 396.023 74.6406C396.023 74.4707 396.165 74.0317 396.448 73.3237C396.731 72.6157 397.1 71.7803 397.553 70.8174C398.006 69.8262 398.487 68.7642 398.997 67.6313C399.535 66.4702 400.045 65.3657 400.526 64.3179C401.036 63.27 401.475 62.3354 401.843 61.5142C402.24 60.6646 402.509 60.0557 402.65 59.6875C403.33 58.1016 403.925 56.5156 404.435 54.9297C404.973 53.3154 405.482 51.7012 405.964 50.0869C405.794 49.5771 405.525 48.7559 405.157 47.623C404.789 46.4902 404.35 45.1875 403.84 43.7148C403.33 42.2139 402.778 40.5996 402.183 38.8721C401.588 37.1445 400.994 35.4028 400.399 33.647C399.804 31.8628 399.224 30.1494 398.657 28.5068C398.091 26.8359 397.595 25.335 397.17 24.0039C396.746 22.6729 396.406 21.5684 396.151 20.6904C395.896 19.8125 395.769 19.2744 395.769 19.0762C395.769 18.8213 395.839 18.623 395.981 18.4814C396.151 18.3398 396.349 18.2266 396.576 18.1416C396.802 18.0566 397.029 18.0142 397.255 18.0142C397.51 17.9858 397.723 17.9717 397.893 17.9717C399.082 17.9717 400.002 18.2266 400.654 18.7363C401.333 19.2461 401.914 20.0107 402.396 21.0303C403.67 23.8623 404.803 26.751 405.794 29.6963C406.785 32.6416 407.776 35.5869 408.768 38.5322C409.277 36.0117 409.773 33.5054 410.254 31.0132C410.764 28.521 411.231 26.0146 411.656 23.4941C411.77 22.9561 411.883 22.2764 411.996 21.4551C412.109 20.6338 412.223 19.7842 412.336 18.9062C412.478 18.0283 412.619 17.207 412.761 16.4424C412.931 15.6494 413.129 15.0264 413.355 14.5732C413.497 14.2617 413.639 14.0493 413.78 13.936C413.95 13.7944 414.233 13.7236 414.63 13.7236C415.083 13.7236 415.55 13.8086 416.032 13.9785C416.513 14.1484 416.938 14.3892 417.306 14.7007C417.703 15.0122 418.014 15.3804 418.241 15.8052C418.496 16.23 418.623 16.6973 418.623 17.207C418.623 19.2178 418.411 21.2002 417.986 23.1543C417.561 25.1084 417.179 27.0908 416.839 29.1016C416.188 32.6416 415.564 36.1816 414.97 39.7217C414.375 43.2334 413.61 46.7168 412.676 50.1719C414.035 54.2783 415.423 58.3423 416.839 62.3638C418.255 66.3853 419.812 70.3643 421.512 74.3008C421.738 74.7822 421.965 75.2637 422.191 75.7451C422.418 76.1982 422.531 76.708 422.531 77.2744ZM454.901 66.7393C454.901 67.2207 454.703 67.688 454.307 68.1411C453.938 68.5942 453.485 69.0332 452.947 69.458C452.409 69.8828 451.857 70.2793 451.291 70.6475C450.724 70.9873 450.257 71.2705 449.889 71.4971C448.926 72.1201 447.963 72.7007 447 73.2388C446.065 73.7769 445.088 74.2441 444.069 74.6406C443.078 75.0371 442.044 75.3486 440.968 75.5752C439.92 75.8018 438.815 75.915 437.654 75.915L436.975 76C436.04 76 435.105 75.9009 434.171 75.7026C433.265 75.4761 432.415 75.1504 431.622 74.7256C430.829 74.2725 430.121 73.7061 429.498 73.0264C428.875 72.3467 428.394 71.5254 428.054 70.5625C427.799 69.7979 427.601 68.8916 427.459 67.8438C427.317 66.7959 427.204 65.7056 427.119 64.5728C427.062 63.4399 427.006 62.3354 426.949 61.2593C426.921 60.1548 426.893 59.1777 426.864 58.3281C426.439 49.6621 426.1 40.9961 425.845 32.3301C425.788 31.3389 425.746 30.3477 425.717 29.3564C425.689 28.3652 425.675 27.374 425.675 26.3828C425.675 24.6836 425.774 23.2393 425.972 22.0498C426.17 20.8604 426.567 19.8833 427.162 19.1187C427.756 18.354 428.606 17.8018 429.71 17.4619C430.843 17.1221 432.33 16.9521 434.171 16.9521C436.012 16.9521 437.853 16.9663 439.693 16.9946C441.562 17.0229 443.432 17.0371 445.301 17.0371C445.867 17.0371 446.434 17.0229 447 16.9946C447.566 16.938 448.133 16.9805 448.699 17.1221C449.039 17.1787 449.336 17.2778 449.591 17.4194C449.846 17.5327 449.974 17.8018 449.974 18.2266C449.974 19.2461 449.634 20.0107 448.954 20.5205C448.274 21.002 447.467 21.3276 446.533 21.4976C445.598 21.6675 444.621 21.7524 443.602 21.7524C442.61 21.7241 441.789 21.71 441.138 21.71H435.615C435.049 21.71 434.482 21.71 433.916 21.71C433.35 21.71 432.783 21.7383 432.217 21.7949C432.047 22.2197 431.934 22.6587 431.877 23.1118C431.82 23.5649 431.792 24.0322 431.792 24.5137C431.792 27.6006 431.863 30.645 432.004 33.647C432.174 36.6489 432.33 39.6934 432.472 42.7803C434.228 42.6387 435.969 42.4688 437.697 42.2705C439.424 42.0723 441.166 41.8457 442.922 41.5908C443.177 41.5908 443.403 41.5767 443.602 41.5483C443.828 41.52 444.055 41.5059 444.281 41.5059C444.876 41.5059 445.287 41.6616 445.513 41.9731C445.768 42.2847 445.896 42.7236 445.896 43.29C445.896 43.6865 445.867 44.0547 445.811 44.3945C445.782 44.7344 445.697 45.0742 445.556 45.4141C445.357 45.9805 445.032 46.3911 444.579 46.646C444.125 46.9009 443.616 47.085 443.049 47.1982C442.483 47.2832 441.888 47.3257 441.265 47.3257C440.67 47.3257 440.146 47.3398 439.693 47.3682C438.504 47.4248 437.329 47.4673 436.167 47.4956C435.035 47.5239 433.888 47.5664 432.727 47.623C432.755 48.2178 432.797 49.1099 432.854 50.2993C432.911 51.4888 432.967 52.834 433.024 54.335C433.109 55.8076 433.194 57.3369 433.279 58.9229C433.392 60.5088 433.505 62.0098 433.619 63.4258C433.732 64.8135 433.859 66.0312 434.001 67.0791C434.143 68.127 434.284 68.835 434.426 69.2031C434.737 69.7979 435.091 70.1943 435.488 70.3926C435.884 70.5625 436.408 70.6475 437.06 70.6475C438.107 70.6475 439.212 70.4492 440.373 70.0527C441.534 69.6279 442.667 69.104 443.771 68.481C444.876 67.8296 445.924 67.1216 446.915 66.3569C447.935 65.5923 448.812 64.8418 449.549 64.1055C449.86 63.8506 450.172 63.5957 450.483 63.3408C450.795 63.0576 451.163 62.916 451.588 62.916C452.013 62.916 452.423 63.0435 452.82 63.2983C453.216 63.5532 453.57 63.8789 453.882 64.2754C454.193 64.6436 454.434 65.0542 454.604 65.5073C454.802 65.9604 454.901 66.3711 454.901 66.7393ZM483.576 17.5469C483.576 18.5664 483.278 19.4019 482.684 20.0532C482.117 20.7046 481.338 21.1436 480.347 21.3701C478.761 21.71 477.133 21.894 475.462 21.9224C473.819 21.9224 472.191 21.9648 470.577 22.0498V30.4609C470.577 37.5977 470.789 44.7202 471.214 51.8286C471.667 58.9087 472.389 66.0029 473.38 73.1113C473.465 73.5361 473.55 73.9609 473.635 74.3857C473.749 74.8105 473.805 75.2354 473.805 75.6602C473.805 76.3398 473.621 76.8354 473.253 77.147C472.913 77.4585 472.417 77.6143 471.766 77.6143C471.256 77.6143 470.619 77.5435 469.854 77.4019C469.118 77.2886 468.538 77.1045 468.113 76.8496C467.546 76.5098 467.178 76.1699 467.008 75.8301C466.867 75.4619 466.753 74.9805 466.668 74.3857C466.357 72.375 466.145 70.3643 466.031 68.3535C465.918 66.3428 465.791 64.332 465.649 62.3213C465.309 58.0166 465.026 53.7261 464.799 49.4497C464.573 45.1733 464.459 40.8828 464.459 36.5781C464.459 34.2275 464.474 31.8911 464.502 29.5688C464.53 27.2466 464.544 24.8818 464.544 22.4746C462.789 22.6445 461.019 22.8145 459.234 22.9844C457.479 23.1543 455.708 23.2393 453.924 23.2393C453.5 23.2393 453.16 23.1401 452.905 22.9419C452.622 22.7153 452.48 22.3896 452.48 21.9648C452.48 20.9736 452.806 20.209 453.457 19.6709C454.108 19.1045 454.887 18.708 455.793 18.4814C457.238 18.1699 458.71 17.9717 460.211 17.8867C461.712 17.7734 463.213 17.6318 464.714 17.4619C464.714 17.1787 464.729 16.9097 464.757 16.6548C464.785 16.3716 464.842 16.1309 464.927 15.9326C465.04 15.7061 465.196 15.522 465.394 15.3804C465.592 15.2388 465.875 15.168 466.244 15.168C466.923 15.168 467.617 15.3237 468.325 15.6353C469.033 15.9468 469.585 16.3857 469.982 16.9521L477.034 16.1875C477.713 16.1025 478.393 16.0176 479.073 15.9326C479.752 15.8193 480.432 15.7627 481.112 15.7627C481.423 15.7627 481.721 15.7769 482.004 15.8052C482.315 15.8335 482.584 15.9185 482.811 16.0601C483.038 16.1733 483.222 16.3574 483.363 16.6123C483.505 16.8389 483.576 17.1504 483.576 17.5469Z" fill="black"/>
</g>
<defs>
<filter id="filter0_d_9_2" x="12.1631" y="13.6387" width="475.413" height="73.0801" filterUnits="userSpaceOnUse" color-interpolation-filters="sRGB">
<feFlood flood-opacity="0" result="BackgroundImageFix"/>
<feColorMatrix in="SourceAlpha" type="matrix" values="0 0 0 0 0 0 0 0 0 0 0 0 0 0 0 0 0 0 127 0" result="hardAlpha"/>
<feOffset dy="4"/>
<feGaussianBlur stdDeviation="2"/>
<feComposite in2="hardAlpha" operator="out"/>
<feColorMatrix type="matrix" values="0 0 0 0 0.766667 0 0 0 0 0.766667 0 0 0 0 0.766667 0 0 0 0.25 0"/>
<feBlend mode="normal" in2="BackgroundImageFix" result="effect1_dropShadow_9_2"/>
<feBlend mode="normal" in="SourceGraphic" in2="effect1_dropShadow_9_2" result="shape"/>
</filter>
</defs>
</svg>
